<?xml version="1.0" encoding="utf-8"?>
<!-- Generator: Adobe Illustrator 19.0.0, SVG Export Plug-In . SVG Version: 6.00 Build 0)  -->
<svg version="1.1" xmlns="http://www.w3.org/2000/svg" xmlns:xlink="http://www.w3.org/1999/xlink" x="0px" y="0px"
	 viewBox="0 0 612 792" enable-background="new 0 0 612 792" xml:space="preserve">
<g id="Layer_1" display="none">
</g>
<g id="Layer_3" display="none">
	<g id="XMLID_4_">
		<path id="XMLID_22_" display="inline" fill="#F9A34A" d="M548,314c-0.2,11.5-28.2,11.4-52.3,14.1c-24.8,2.2-45.7,7.2-47.8,16.5
			c-2,9.5,13.8,29.4,28.2,51.1c14.5,21.3,27.6,44.5,21.6,52.3c-6,8.3-27.1-2.1-47.7-10.9c-20.7-9.1-41-16.6-48.2-9.4
			c-7.3,7.1-6,32.4-8.4,61.2c-2,28.2-7.9,59.8-19.7,65.1c-11.5,5.1-20-20.5-29.8-42.7c-9.6-22.9-20.6-42.4-31-41.3
			c-10.3,1-25.5,22.8-45,44.8c-18.7,21.8-41.6,43.7-50.2,39.3c-8.8-4.6,0-30.7,4.9-54.5c5.5-24.1,7-45.8-1.3-50.8
			c-8.3-4.9-31.6,3.9-56.5,11.1c-24.7,7.3-51.1,12.9-58.4,4.4c-7.7-8.5,9-25.6,24.2-42.6c15.5-17.1,29.4-34,24.6-43.3
			c-4.5-9.1-29.2-15.6-56.5-26.8c-26.7-10.6-55.8-26-55.7-37.7c0.2-11.5,28.2-11.4,52.3-14.1c24.8-2.2,45.7-7.2,47.8-16.5
			c2-9.5-13.8-29.4-28.2-51.1c-14.5-21.3-27.6-44.5-21.6-52.3c6-8.3,27.1,2.1,47.7,10.9c20.7,9.1,41,16.6,48.2,9.4
			c7.3-7.1,6-32.4,8.4-61.2c2-28.2,7.9-59.8,19.7-65.1c11.5-5.1,20,20.5,29.8,42.7c9.6,22.9,20.6,42.4,31,41.3
			c10.3-1,25.5-22.8,45-44.8c18.7-21.8,41.6-43.7,50.2-39.3c8.8,4.6,0,30.7-4.9,54.5c-5.5,24.1-7,45.8,1.3,50.8
			c8.3,4.9,31.6-3.9,56.5-11.1c24.7-7.3,51.1-12.9,58.4-4.4c7.7,8.5-9,25.6-24.2,42.6c-15.5,17.1-29.4,34-24.6,43.3
			c4.5,9.1,29.2,15.6,56.5,26.8C518.9,286.9,548.1,302.3,548,314z"/>
	</g>
</g>
<g id="Layer_2">
	<circle id="XMLID_7_" fill="#F9AA69" cx="295.5" cy="314" r="151"/>
</g>
<g id="Layer_4" display="none">
	<circle id="XMLID_3_" display="inline" fill="#F173A1" cx="295.5" cy="314" r="62.5"/>
</g>
</svg>
