<?xml version="1.0" encoding="utf-8"?>
<!-- Generator: Adobe Illustrator 19.0.0, SVG Export Plug-In . SVG Version: 6.00 Build 0)  -->
<svg version="1.1" xmlns="http://www.w3.org/2000/svg" xmlns:xlink="http://www.w3.org/1999/xlink" x="0px" y="0px"
	 viewBox="0 0 1200 792" enable-background="new 0 0 1200 792" xml:space="preserve">
<g id="Layer_1">
	<g id="XMLID_1_">
		<path id="XMLID_28_" fill="#EE352F" d="M715.7,220.7c-111.2-53.8-241.2-53.8-352.5,0c-19.5,9.4-43.7,4.8-54.9-12.7c0,0,0,0,0,0
			c-11.1-17.4-1.7-43.3,22.2-54.8c131.9-63.8,285.9-63.8,417.8,0c23.9,11.5,33.3,37.4,22.2,54.8c0,0,0,0,0,0
			C759.4,225.5,735.3,230.1,715.7,220.7z"/>
	</g>
</g>
<g id="Layer_2" display="none">
	<g id="XMLID_17_" display="inline">
		<path id="XMLID_24_" fill="#EE352F" d="M824.4,376.2c-157.3-81.2-344.5-81.2-501.8,0c-19.4,10-43.6,5.3-54.7-12.2c0,0,0,0,0,0
			c-11.1-17.5-2.3-42.8,20.3-54.4c178.9-92.3,391.7-92.3,570.6,0c22.6,11.7,31.4,37,20.3,54.4v0C868,381.6,843.9,386.2,824.4,376.2z
			"/>
	</g>
</g>
<g id="Layer_3" display="none">
	<g id="XMLID_13_" display="inline">
		<path id="XMLID_16_" fill="#EE352F" d="M897,539.5c-202-108.1-445-108.1-647.1,0c-19.4,10.3-43.5,5.6-54.6-11.9c0,0,0,0,0,0
			c-11-17.5-2.7-42.5,19.2-54.2c224.1-119.9,493.7-119.9,717.8,0c21.9,11.7,30.2,36.7,19.2,54.2c0,0,0,0,0,0
			C940.6,545.1,916.4,549.8,897,539.5z"/>
	</g>
</g>
<g id="Layer_4" display="none">
	<g id="XMLID_21_" display="inline">
		<path id="XMLID_20_" fill="#EE352F" d="M1050.1,733.8c-246.4-134.9-544.8-134.9-791.2,0c-19.3,10.6-43.5,5.8-54.5-11.7
			c0,0,0,0,0,0c-11-17.5-2.9-42.3,18.5-54c268.8-147.2,594.4-147.2,863.2,0c21.4,11.7,29.5,36.5,18.5,54c0,0,0,0,0,0
			C1093.6,739.6,1069.4,744.3,1050.1,733.8z"/>
	</g>
</g>
<g id="Layer_5" display="none">
	<g id="XMLID_2_" display="inline">
		<path id="XMLID_25_" fill="#EE352F" d="M425,105.8c-41.4-14.7-86.6-14.7-128,0c-19.9,6.9-44.1,2.5-55.6-14.8c0,0,0,0,0,0
			c-11.5-17.1,1-45.5,30.5-55.9c57.6-20.4,120.6-20.4,178.2,0c29.4,10.4,42,38.8,30.5,55.9c0,0,0,0,0,0
			C469.1,108.3,444.9,112.7,425,105.8z"/>
	</g>
</g>
</svg>
