<?xml version="1.0" encoding="utf-8"?>
<!-- Generator: Adobe Illustrator 19.0.0, SVG Export Plug-In . SVG Version: 6.00 Build 0)  -->
<svg version="1.1" xmlns="http://www.w3.org/2000/svg" xmlns:xlink="http://www.w3.org/1999/xlink" x="0px" y="0px"
	 viewBox="0 0 612 792" enable-background="new 0 0 612 792" xml:space="preserve">
<g id="Layer_1" display="none">
</g>
<g id="Layer_3" display="none">
	<g id="XMLID_4_" display="inline">
		<path id="XMLID_24_" fill="#71C7EB" d="M433.5,250c0,15.7-18.8,28.7-22.6,43.1c-4,15,5.6,35.6-1.9,48.7
			c-7.7,13.3-30.4,15.2-41.2,26c-10.8,10.8-12.7,33.5-26,41.2c-13.1,7.6-33.7-2.1-48.7,1.9c-14.5,3.9-27.4,22.6-43.1,22.6
			c-15.7,0-28.7-18.8-43.1-22.6c-15-4-35.6,5.6-48.7-1.9c-13.3-7.7-15.2-30.4-26-41.2c-10.8-10.8-33.5-12.7-41.2-26
			c-7.6-13.1,2.1-33.7-1.9-48.7c-3.9-14.5-22.6-27.4-22.6-43.1c0-15.7,18.8-28.7,22.6-43.1c4-15-5.6-35.6,1.9-48.7
			c7.7-13.3,30.4-15.2,41.2-26c10.8-10.8,12.7-33.5,26-41.2c13.1-7.6,33.7,2.1,48.7-1.9c14.5-3.9,27.4-22.6,43.1-22.6
			c15.7,0,28.7,18.8,43.1,22.6c15,4,35.6-5.6,48.7,1.9c13.3,7.7,15.2,30.4,26,41.2c10.8,10.8,33.5,12.7,41.2,26
			c7.6,13.1-2.1,33.7,1.9,48.7C414.7,221.3,433.5,234.3,433.5,250z"/>
	</g>
</g>
<g id="Layer_2">
	<circle id="XMLID_1_" fill="#127DAC" cx="250" cy="250" r="151"/>
</g>
<g id="Layer_4" display="none">
	<circle id="XMLID_3_" display="inline" fill="#025073" cx="250" cy="250" r="86"/>
</g>
</svg>
