<?xml version="1.0" encoding="utf-8"?>
<!-- Generator: Adobe Illustrator 19.0.0, SVG Export Plug-In . SVG Version: 6.00 Build 0)  -->
<svg version="1.1" xmlns="http://www.w3.org/2000/svg" xmlns:xlink="http://www.w3.org/1999/xlink" x="0px" y="0px"
	 viewBox="0 0 612 792" enable-background="new 0 0 612 792" xml:space="preserve">
<g id="Layer_2">
</g>
<g id="Layer_3" display="none">
	<polygon id="XMLID_3_" display="inline" fill="#58CAEF" points="149.1,42.5 317,294.5 75.4,431.5 75.4,42.5 	"/>
</g>
<g id="Layer_1">
	<path id="XMLID_6_" fill="#E74646" d="M220.8,140.9c-19.9-30.9-39.7-61.8-59.6-92.7c-4.7-7.3-15.1-7.7-20.4-0.9
		C118,76.8,85.8,129,77.9,199.4c-2.9,26.1-7.7,74.6,16,129c7,16.1,15.3,29.9,23.6,41.5c7.3,10.1,23.3,4.5,22.7-7.9
		c-0.7-13.1-0.7-27.7,0.7-43.5c2.3-26.2,5.8-62.6,28-102c8.1-14.4,23.2-37.2,49.4-59.2C223.1,153.2,224.2,146.2,220.8,140.9z
		 M201.4,149.5c-17.1,16.2-43.7,46.4-59.5,91.9C128.1,281,127.5,317.7,131,346c1,8.7-10.9,12.1-14.5,4.2
		C104.3,323.8,93,289,90.9,247.4C86.5,158.8,126.3,93.6,146,66.4c3.2-4.4,9.9-4.1,12.7,0.6c14.7,24.3,29.3,48.7,44,73
		C204.5,143.1,204,147,201.4,149.5z"/>
	<circle id="XMLID_1_" fill="#E74646" cx="133.5" cy="375.1" r="21.5"/>
	<polygon id="XMLID_7_" fill="#E74646" points="149.1,55 104,128 82,219 90.6,293 117.5,369.8 133.5,364 147.2,237 211,151 
		180.8,78.6 	"/>
</g>
</svg>
